<svg width="79" height="87" viewBox="0 0 79 87" fill="none" xmlns="http://www.w3.org/2000/svg">
<path d="M31.836 3.04975V20.8232C31.836 23.8505 33.8868 24.6318 36.1817 23.0204L48.584 14.329C50.4883 12.9618 50.5371 10.9599 48.584 9.59274L36.2305 0.852549C33.8868 -0.807651 31.836 -0.0263546 31.836 3.04975ZM39.4043 86.3017C61.1817 86.3017 78.8575 68.6747 78.8575 46.8974C78.8575 33.9091 72.6563 22.6786 63.086 15.4033C61.1817 13.9384 58.6426 14.4267 57.5684 16.2333C56.4453 18.04 57.0313 20.0908 58.7891 21.4579C66.4063 27.2685 71.3868 36.4482 71.3868 46.8974C71.3868 64.5732 57.0801 78.8799 39.4043 78.8799C21.7286 78.8799 7.47066 64.5732 7.47066 46.8974C7.47066 29.2216 21.7286 14.915 39.4043 14.915C41.4551 14.915 43.1153 13.2548 43.1153 11.204C43.1153 9.15334 41.5039 7.54194 39.4532 7.49314C17.627 7.54194 0 25.1201 0 46.8974C0 68.6747 17.6758 86.3017 39.4043 86.3017ZM29.1016 62.7177C30.9571 62.7177 32.0801 61.3993 32.0801 59.5439V36.1552C32.0801 34.0068 30.7618 32.7372 28.6133 32.7372C26.8555 32.7372 25.6348 33.5185 24.2676 34.5439L20.3614 37.4736C19.5313 38.1083 19.043 38.7919 19.043 39.8173C19.043 41.038 19.9219 42.0146 21.1426 42.0146C21.7286 42.0146 22.1192 41.8193 22.6075 41.4286L25.9766 38.8896H26.0743V59.5439C26.0743 61.3993 27.2461 62.7177 29.1016 62.7177ZM48.7305 62.9618C56.2989 62.9618 59.0332 55.3935 59.0332 47.6786C59.0332 40.0615 56.3477 32.4931 48.7305 32.4931C41.1133 32.4931 38.4278 40.0615 38.4278 47.6786C38.4278 55.3935 41.1133 62.9618 48.7305 62.9618ZM48.7305 58.1767C46.045 58.1767 44.4825 54.0263 44.4825 47.6786C44.4825 41.4286 46.045 37.3271 48.7305 37.3271C51.4161 37.3271 52.9786 41.4286 52.9786 47.6786C52.9786 54.0263 51.4161 58.1767 48.7305 58.1767Z" fill="currentColor"/>
</svg>
